<?xml version="1.0" standalone="no"?>
<!DOCTYPE svg PUBLIC "-//W3C//DTD SVG 20010904//EN"
 "http://www.w3.org/TR/2001/REC-SVG-20010904/DTD/svg10.dtd">
<svg version="1.0" xmlns="http://www.w3.org/2000/svg"
 width="676.000000pt" height="674.000000pt" viewBox="0 0 676.000000 674.000000"
 preserveAspectRatio="xMidYMid meet">

<g transform="translate(0.000000,674.000000) scale(0.100000,-0.100000)"
fill="#000000" stroke="none">
<path d="M0 3370 l0 -3370 3380 0 3380 0 0 3370 0 3370 -3380 0 -3380 0 0
-3370z m4287 1595 c54 -36 77 -118 49 -172 -17 -34 -1060 -1068 -1097 -1089
-13 -7 -41 -13 -61 -14 -47 0 -55 7 -323 271 -115 113 -231 225 -257 249 -71
63 -92 102 -85 157 6 58 33 94 84 112 76 27 94 15 352 -230 l232 -221 107 103
c59 57 240 234 402 394 371 366 464 452 492 458 33 7 78 -1 105 -18z m-1785
-1017 c57 -17 98 -68 98 -121 0 -53 -30 -103 -72 -121 -18 -8 -77 -19 -130
-25 -118 -13 -189 -39 -265 -95 -233 -171 -318 -434 -223 -689 102 -272 437
-433 665 -319 17 8 305 290 640 627 591 593 613 614 690 653 213 107 466 128
676 57 239 -81 462 -297 532 -515 60 -189 66 -394 15 -550 -75 -233 -216 -393
-443 -508 -133 -67 -332 -109 -462 -98 -158 13 -366 84 -482 163 -84 58 -225
197 -245 242 -34 73 6 159 84 182 57 17 83 6 173 -78 194 -182 343 -242 570
-230 230 11 406 118 496 300 72 146 87 270 51 412 -44 173 -133 291 -282 374
-111 61 -292 87 -406 57 -147 -37 -129 -22 -772 -661 -327 -326 -613 -605
-635 -622 -170 -129 -425 -157 -636 -71 -136 56 -286 166 -367 269 -63 81
-126 205 -153 303 -19 67 -23 104 -22 216 1 146 13 212 58 325 71 177 241 352
440 453 61 30 133 53 215 67 98 17 144 18 192 3z"/>
</g>
</svg>
